<svg width="51" height="27" viewBox="0 0 51 27" fill="none" xmlns="http://www.w3.org/2000/svg">
<path d="M1.3 27C0.966667 27 0.8 26.8333 0.8 26.5V22.74C0.8 22.5667 0.806667 22.4267 0.82 22.32C0.846667 22.2133 0.926667 22.1267 1.06 22.06L6.3 19.66V16.1L1.14 12.9C0.913333 12.7667 0.8 12.5667 0.8 12.3V4.96C0.8 4.74667 0.813333 4.59333 0.84 4.5C0.866667 4.39333 0.966667 4.28 1.14 4.16L6.4 0.599999C6.53333 0.519998 6.65333 0.459998 6.76 0.419998C6.88 0.366665 7.02667 0.339999 7.2 0.339999H12.6C12.9333 0.339999 13.1 0.506665 13.1 0.839998V4.24C13.1 4.53333 13 4.73333 12.8 4.84L7.56 7V10.7L12.8 13.7C13 13.7933 13.1 14.0067 13.1 14.34V23.04C13.1 23.1467 13.08 23.26 13.04 23.38C13.0133 23.5 12.9467 23.5867 12.84 23.64L6.56 26.76C6.48 26.8 6.38 26.8533 6.26 26.92C6.15333 26.9733 6.04667 27 5.94 27H1.3ZM17.7984 27C17.4651 27 17.2984 26.8333 17.2984 26.5V0.839998C17.2984 0.506665 17.4651 0.339999 17.7984 0.339999H29.1584C29.4784 0.339999 29.7451 0.446666 29.9584 0.659999L33.9584 4.66C34.1851 4.88667 34.2984 5.15333 34.2984 5.46V26.5C34.2984 26.8333 34.1318 27 33.7984 27H28.1384C27.8051 27 27.6384 26.8333 27.6384 26.5V5.66H23.9584V26.5C23.9584 26.8333 23.7918 27 23.4584 27H17.7984ZM38.9953 27C38.662 27 38.4953 26.8333 38.4953 26.5V22.74C38.4953 22.5667 38.502 22.4267 38.5153 22.32C38.542 22.2133 38.622 22.1267 38.7553 22.06L43.9953 19.66V16.1L38.8353 12.9C38.6086 12.7667 38.4953 12.5667 38.4953 12.3V4.96C38.4953 4.74667 38.5086 4.59333 38.5353 4.5C38.562 4.39333 38.662 4.28 38.8353 4.16L44.0953 0.599999C44.2286 0.519998 44.3486 0.459998 44.4553 0.419998C44.5753 0.366665 44.722 0.339999 44.8953 0.339999H50.2953C50.6286 0.339999 50.7953 0.506665 50.7953 0.839998V4.24C50.7953 4.53333 50.6953 4.73333 50.4953 4.84L45.2553 7V10.7L50.4953 13.7C50.6953 13.7933 50.7953 14.0067 50.7953 14.34V23.04C50.7953 23.1467 50.7753 23.26 50.7353 23.38C50.7086 23.5 50.642 23.5867 50.5353 23.64L44.2553 26.76C44.1753 26.8 44.0753 26.8533 43.9553 26.92C43.8486 26.9733 43.742 27 43.6353 27H38.9953Z" fill="#C29A83"/>
</svg>
