<svg width="357" height="118" viewBox="0 0 357 118" fill="none" xmlns="http://www.w3.org/2000/svg">
<g filter="url(#filter0_d_12_2)">
<path d="M17.28 92C16.2133 92 15.68 91.4667 15.68 90.4V8.28799C15.68 7.22133 16.2133 6.688 17.28 6.688H35.392C36.4587 6.688 36.992 7.22133 36.992 8.28799V38.688H52.8V8.28799C52.8 7.22133 53.3333 6.688 54.4 6.688H72.512C73.5787 6.688 74.112 7.22133 74.112 8.28799V90.4C74.112 91.4667 73.5787 92 72.512 92H54.4C53.3333 92 52.8 91.4667 52.8 90.4V55.712H36.992V90.4C36.992 91.4667 36.4587 92 35.392 92H17.28ZM105.43 92C104.449 92 103.595 91.6373 102.87 90.912L90.07 78.112C89.3447 77.4293 88.982 76.576 88.982 75.552V38.048C88.982 37.024 89.3447 36.1707 90.07 35.488L102.87 22.688C103.595 21.9627 104.449 21.6 105.43 21.6H124.822C125.846 21.6 126.699 21.9627 127.382 22.688L140.182 35.488C140.907 36.1707 141.27 37.024 141.27 38.048V75.552C141.27 76.576 140.907 77.4293 140.182 78.112L127.382 90.912C126.699 91.6373 125.846 92 124.822 92H105.43ZM112.918 77.088H117.398C118.763 77.088 119.702 76.8107 120.214 76.256C120.726 75.7013 120.982 74.72 120.982 73.312V40.288C120.982 38.88 120.726 37.8987 120.214 37.344C119.702 36.7893 118.763 36.512 117.398 36.512H112.918C111.51 36.512 110.55 36.7893 110.038 37.344C109.526 37.8987 109.27 38.88 109.27 40.288V73.312C109.27 74.72 109.526 75.7013 110.038 76.256C110.55 76.8107 111.51 77.088 112.918 77.088ZM172.18 92C171.199 92 170.345 91.6373 169.62 90.912L156.82 78.112C156.095 77.4293 155.732 76.576 155.732 75.552V23.2C155.732 22.1333 156.265 21.6 157.332 21.6H174.42C175.487 21.6 176.02 22.1333 176.02 23.2V76H186.708V23.2C186.708 22.1333 187.241 21.6 188.308 21.6H205.332C206.399 21.6 206.932 22.1333 206.932 23.2V76H217.62V23.2C217.62 22.1333 218.153 21.6 219.22 21.6H236.308C237.375 21.6 237.908 22.1333 237.908 23.2V75.552C237.908 76.576 237.545 77.4293 236.82 78.112L224.02 90.912C223.295 91.6373 222.441 92 221.46 92H206.868C205.844 92 204.991 91.6373 204.308 90.912L195.668 82.272H197.972L189.332 90.912C188.649 91.6373 187.796 92 186.772 92H172.18ZM274.78 92C273.713 92 273.18 91.4667 273.18 90.4V23.2C273.18 22.1333 273.713 21.6 274.78 21.6H291.804C292.871 21.6 293.404 22.1333 293.404 23.2V90.4C293.404 91.4667 292.871 92 291.804 92H274.78ZM274.46 16.288C273.607 16.288 273.18 15.8613 273.18 15.008V6.88C273.18 6.02666 273.607 5.6 274.46 5.6H292.252C293.02 5.6 293.404 6.02666 293.404 6.88V15.008C293.404 15.8613 293.02 16.288 292.252 16.288H274.46ZM307.921 92C306.854 92 306.321 91.4667 306.321 90.4V80.032C306.321 79.0507 306.641 78.4107 307.281 78.112L320.337 70.368V63.712L307.281 56.672C306.641 56.288 306.321 55.6267 306.321 54.688V34.272C306.321 33.8027 306.385 33.4187 306.513 33.12C306.684 32.8213 306.918 32.5653 307.217 32.352L320.849 22.368C321.318 22.0267 321.702 21.8133 322.001 21.728C322.3 21.6427 322.598 21.6 322.897 21.6H338.449C339.516 21.6 340.049 22.1333 340.049 23.2V33.248C340.049 33.9733 339.985 34.464 339.857 34.72C339.772 34.976 339.558 35.1893 339.217 35.36L327.121 41.888V49.312L340.049 55.712C340.774 56.0107 341.137 56.6507 341.137 57.632V77.28C341.137 78.3467 340.774 79.2 340.049 79.84L326.417 91.168C325.734 91.7227 324.881 92 323.857 92H307.921Z" fill="#010101"/>
</g>
<defs>
<filter id="filter0_d_12_2" x="0.0801754" y="5.72205e-06" width="356.657" height="117.6" filterUnits="userSpaceOnUse" color-interpolation-filters="sRGB">
<feFlood flood-opacity="0" result="BackgroundImageFix"/>
<feColorMatrix in="SourceAlpha" type="matrix" values="0 0 0 0 0 0 0 0 0 0 0 0 0 0 0 0 0 0 127 0" result="hardAlpha"/>
<feOffset dy="10"/>
<feGaussianBlur stdDeviation="7.8"/>
<feComposite in2="hardAlpha" operator="out"/>
<feColorMatrix type="matrix" values="0 0 0 0 0.909948 0 0 0 0 0.727453 0 0 0 0 0.621798 0 0 0 0.35 0"/>
<feBlend mode="normal" in2="BackgroundImageFix" result="effect1_dropShadow_12_2"/>
<feBlend mode="normal" in="SourceGraphic" in2="effect1_dropShadow_12_2" result="shape"/>
</filter>
</defs>
</svg>
