<svg width="28" height="28" viewBox="0 0 28 28" fill="none" xmlns="http://www.w3.org/2000/svg">
<path d="M12.8751 0.833328C15.1361 0.833176 17.3514 1.46956 19.2675 2.66966C21.1837 3.86975 22.7233 5.58506 23.7101 7.61929C24.6969 9.65352 25.0911 11.9245 24.8475 14.1723C24.6039 16.4201 23.7324 18.5539 22.3328 20.3295L27.5064 25.5032C27.7645 25.7703 27.9073 26.1282 27.9041 26.4996C27.9008 26.8711 27.7519 27.2264 27.4892 27.4891C27.2265 27.7517 26.8712 27.9007 26.4998 27.9039C26.1283 27.9072 25.7705 27.7644 25.5033 27.5063L20.3296 22.3327C18.8215 23.5212 17.051 24.3318 15.1659 24.697C13.2808 25.0621 11.3357 24.9711 9.49284 24.4316C7.65003 23.8921 5.96295 22.9197 4.57237 21.5956C3.18178 20.2715 2.12801 18.634 1.49897 16.8198C0.869927 15.0056 0.683858 13.0673 0.956285 11.1666C1.22871 9.26582 1.95174 7.45779 3.06503 5.89331C4.17833 4.32884 5.64962 3.05328 7.35614 2.17306C9.06267 1.29284 10.955 0.833492 12.8751 0.833328ZM12.8751 3.66666C10.4329 3.66666 8.09074 4.63682 6.36384 6.36372C4.63694 8.09062 3.66678 10.4328 3.66678 12.875C3.66678 15.3172 4.63694 17.6594 6.36384 19.3863C8.09074 21.1132 10.4329 22.0833 12.8751 22.0833C15.3173 22.0833 17.6595 21.1132 19.3864 19.3863C21.1133 17.6594 22.0834 15.3172 22.0834 12.875C22.0834 10.4328 21.1133 8.09062 19.3864 6.36372C17.6595 4.63682 15.3173 3.66666 12.8751 3.66666ZM12.8751 5.08333C14.9416 5.08333 16.9234 5.90423 18.3847 7.36545C19.8459 8.82667 20.6668 10.8085 20.6668 12.875C20.6668 14.9415 19.8459 16.9233 18.3847 18.3845C16.9234 19.8458 14.9416 20.6667 12.8751 20.6667C10.8086 20.6667 8.8268 19.8458 7.36557 18.3845C5.90435 16.9233 5.08345 14.9415 5.08345 12.875C5.08345 10.8085 5.90435 8.82667 7.36557 7.36545C8.8268 5.90423 10.8086 5.08333 12.8751 5.08333Z" fill="#010101"/>
</svg>
