<svg width="123" height="33" viewBox="0 0 123 33" fill="none" xmlns="http://www.w3.org/2000/svg">
<path d="M1.48 33C1.08 33 0.88 32.8 0.88 32.4V1.608C0.88 1.208 1.08 1.008 1.48 1.008H8.272C8.672 1.008 8.872 1.208 8.872 1.608V13.008H14.8V1.608C14.8 1.208 15 1.008 15.4 1.008H22.192C22.592 1.008 22.792 1.208 22.792 1.608V32.4C22.792 32.8 22.592 33 22.192 33H15.4C15 33 14.8 32.8 14.8 32.4V19.392H8.872V32.4C8.872 32.8 8.672 33 8.272 33H1.48ZM34.5363 33C34.1683 33 33.8483 32.864 33.5763 32.592L28.7763 27.792C28.5043 27.536 28.3683 27.216 28.3683 26.832V12.768C28.3683 12.384 28.5043 12.064 28.7763 11.808L33.5763 7.008C33.8483 6.736 34.1683 6.6 34.5363 6.6H41.8083C42.1923 6.6 42.5123 6.736 42.7683 7.008L47.5683 11.808C47.8403 12.064 47.9763 12.384 47.9763 12.768V26.832C47.9763 27.216 47.8403 27.536 47.5683 27.792L42.7683 32.592C42.5123 32.864 42.1923 33 41.8083 33H34.5363ZM37.3443 27.408H39.0243C39.5363 27.408 39.8883 27.304 40.0803 27.096C40.2723 26.888 40.3683 26.52 40.3683 25.992V13.608C40.3683 13.08 40.2723 12.712 40.0803 12.504C39.8883 12.296 39.5363 12.192 39.0243 12.192H37.3443C36.8163 12.192 36.4563 12.296 36.2643 12.504C36.0723 12.712 35.9763 13.08 35.9763 13.608V25.992C35.9763 26.52 36.0723 26.888 36.2643 27.096C36.4563 27.304 36.8163 27.408 37.3443 27.408ZM59.5675 33C59.1995 33 58.8795 32.864 58.6075 32.592L53.8075 27.792C53.5355 27.536 53.3995 27.216 53.3995 26.832V7.2C53.3995 6.8 53.5995 6.6 53.9995 6.6H60.4075C60.8075 6.6 61.0075 6.8 61.0075 7.2V27H65.0155V7.2C65.0155 6.8 65.2155 6.6 65.6155 6.6H71.9995C72.3995 6.6 72.5995 6.8 72.5995 7.2V27H76.6075V7.2C76.6075 6.8 76.8075 6.6 77.2075 6.6H83.6155C84.0155 6.6 84.2155 6.8 84.2155 7.2V26.832C84.2155 27.216 84.0795 27.536 83.8075 27.792L79.0075 32.592C78.7355 32.864 78.4155 33 78.0475 33H72.5755C72.1915 33 71.8715 32.864 71.6155 32.592L68.3755 29.352H69.2395L65.9995 32.592C65.7435 32.864 65.4235 33 65.0395 33H59.5675ZM98.0425 33C97.6425 33 97.4425 32.8 97.4425 32.4V7.2C97.4425 6.8 97.6425 6.6 98.0425 6.6H104.427C104.827 6.6 105.027 6.8 105.027 7.2V32.4C105.027 32.8 104.827 33 104.427 33H98.0425ZM97.9225 4.608C97.6025 4.608 97.4425 4.448 97.4425 4.128V1.08C97.4425 0.759999 97.6025 0.599999 97.9225 0.599999H104.595C104.883 0.599999 105.027 0.759999 105.027 1.08V4.128C105.027 4.448 104.883 4.608 104.595 4.608H97.9225ZM110.47 33C110.07 33 109.87 32.8 109.87 32.4V28.512C109.87 28.144 109.99 27.904 110.23 27.792L115.126 24.888V22.392L110.23 19.752C109.99 19.608 109.87 19.36 109.87 19.008V11.352C109.87 11.176 109.894 11.032 109.942 10.92C110.006 10.808 110.094 10.712 110.206 10.632L115.318 6.888C115.494 6.76 115.638 6.68 115.75 6.648C115.862 6.616 115.974 6.6 116.086 6.6H121.918C122.318 6.6 122.518 6.8 122.518 7.2V10.968C122.518 11.24 122.494 11.424 122.446 11.52C122.414 11.616 122.334 11.696 122.206 11.76L117.67 14.208V16.992L122.518 19.392C122.79 19.504 122.926 19.744 122.926 20.112V27.48C122.926 27.88 122.79 28.2 122.518 28.44L117.406 32.688C117.15 32.896 116.83 33 116.446 33H110.47Z" fill="#010101"/>
</svg>
